<svg width="60" height="60" viewBox="0 0 60 60" fill="none" xmlns="http://www.w3.org/2000/svg">
<path d="M49.4118 0H10.5882C4.74051 0 0 4.74051 0 10.5882V49.4118C0 55.2595 4.74051 60 10.5882 60H49.4118C55.2595 60 60 55.2595 60 49.4118V10.5882C60 4.74051 55.2595 0 49.4118 0Z" fill="#2C4147"/>
<path fill-rule="evenodd" clip-rule="evenodd" d="M31.8582 21.6177V12.0442H35.5919C38.6007 12.0442 40.6796 14.1093 40.6796 16.8036V16.8309C40.6796 19.5252 38.6007 21.6177 35.5919 21.6177H31.8582ZM35.5919 13.9452H33.9644V19.7167H35.5919C37.3152 19.7167 38.4777 18.5542 38.4777 16.8583V16.8309C38.4777 15.135 37.3152 13.9452 35.5919 13.9452Z" fill="white"/>
<path fill-rule="evenodd" clip-rule="evenodd" d="M25.3245 21.7817C22.3703 21.7817 20.2505 19.5798 20.2505 16.8582V16.8309C20.2505 14.1092 22.3977 11.88 25.3518 11.88C28.3059 11.88 30.4258 14.0819 30.4258 16.8035V16.8309C30.4258 19.5525 28.2786 21.7817 25.3245 21.7817ZM25.3518 19.8397C27.0477 19.8397 28.2239 18.4994 28.2239 16.8582V16.8309C28.2239 15.1897 27.0203 13.822 25.3245 13.822C23.6286 13.822 22.4524 15.1623 22.4524 16.8035V16.8309C22.4524 18.472 23.6559 19.8397 25.3518 19.8397Z" fill="white"/>
<path fill-rule="evenodd" clip-rule="evenodd" d="M15.9393 21.8135C17.7856 21.8135 18.8797 21.1571 19.8644 20.104L18.5241 18.75C17.7719 19.4338 17.1018 19.8715 16.0077 19.8715C14.3665 19.8715 13.2313 18.5038 13.2313 16.8627V16.8353C13.2313 15.1941 14.3938 13.8538 16.0077 13.8538C16.965 13.8538 17.7172 14.2641 18.4557 14.9343L19.796 13.3888C18.9071 12.5135 17.8266 11.9118 16.0213 11.9118C13.0809 11.9118 11.0294 14.141 11.0294 16.8627V16.89C11.0294 19.639 13.1219 21.8135 15.9393 21.8135Z" fill="white"/>
<path fill-rule="evenodd" clip-rule="evenodd" d="M42.1121 21.6177H49.4016V19.744H44.2046V17.7336H48.7178V15.8599H44.2046V13.9178H49.3332V12.0442H42.1121V21.6177Z" fill="white"/>
<path fill-rule="evenodd" clip-rule="evenodd" d="M19.8529 34.8507L23.9558 25.2088H25.8979L30.0008 34.8507H27.7989L26.9236 32.7035H22.8754L22.0001 34.8507H19.8529ZM23.6276 30.8435H26.1714L24.8995 27.739L23.6276 30.8435Z" fill="white"/>
<path fill-rule="evenodd" clip-rule="evenodd" d="M11.9118 34.7206V25.1471H15.8232C18.1072 25.1471 19.4885 26.501 19.4885 28.4568V28.4841C19.4885 30.6997 17.7653 31.8485 15.6181 31.8485H14.018V34.7206H11.9118ZM14.018 29.9749H15.6865C16.7396 29.9749 17.355 29.3457 17.355 28.5252V28.4978C17.355 27.5541 16.6985 27.0481 15.6455 27.0481H14.018V29.9749Z" fill="white"/>
<path fill-rule="evenodd" clip-rule="evenodd" d="M33.4994 34.8529H35.6055V27.2214H38.5186V25.2794H30.5863V27.2214H33.4994V34.8529Z" fill="white"/>
<path fill-rule="evenodd" clip-rule="evenodd" d="M40.5882 34.7206H42.6944V30.8775H46.5785V34.7206H48.6847V25.1471H46.5785V28.9354H42.6944V25.1471H40.5882V34.7206Z" fill="white"/>
<path fill-rule="evenodd" clip-rule="evenodd" d="M31.7444 47.2059V37.6323H36.1208C37.338 37.6323 38.2817 37.9742 38.9108 38.6034C39.4442 39.1367 39.7314 39.8889 39.7314 40.7916V40.8189C39.7314 42.3644 38.8971 43.3354 37.6799 43.7867L40.0186 47.2059H37.5569L35.5054 44.1423H33.8505V47.2059H31.7444ZM33.8505 42.2823H35.9841C37.0098 42.2823 37.5979 41.7353 37.5979 40.9284V40.901C37.5979 39.9984 36.9688 39.5334 35.943 39.5334H33.8505V42.2823Z" fill="#00C98E"/>
<path fill-rule="evenodd" clip-rule="evenodd" d="M46.0624 47.4018C47.8129 47.4018 49.1669 46.7179 50.1516 45.8837V41.726H45.994V43.545H48.1138V44.9126C47.5804 45.2956 46.8966 45.4871 46.1307 45.4871C44.4349 45.4871 43.2313 44.2015 43.2313 42.4509V42.4235C43.2313 40.796 44.4485 39.4421 45.9803 39.4421C47.0881 39.4421 47.7446 39.7976 48.4831 40.4131L49.8097 38.8129C48.8113 37.965 47.7719 37.5 46.0487 37.5C43.1493 37.5 41.0294 39.7293 41.0294 42.4509V42.4782C41.0294 45.3093 43.0809 47.4018 46.0624 47.4018Z" fill="#00C98E"/>
<path fill-rule="evenodd" clip-rule="evenodd" d="M24.7694 47.37C21.8153 47.37 19.6955 45.1681 19.6955 42.4465V42.4191C19.6955 39.6975 21.8427 37.4682 24.7968 37.4682C27.7509 37.4682 29.8708 39.6701 29.8708 42.3918V42.4191C29.8708 45.1407 27.7236 47.37 24.7694 47.37ZM24.7968 45.4279C26.4927 45.4279 27.6688 44.0876 27.6688 42.4465V42.4191C27.6688 40.7779 26.4653 39.4103 24.7694 39.4103C23.0736 39.4103 21.8974 40.7506 21.8974 42.3918V42.4191C21.8974 44.0603 23.1009 45.4279 24.7968 45.4279Z" fill="#00C98E"/>
<path fill-rule="evenodd" clip-rule="evenodd" d="M15.1321 46.3235C15.2541 46.3235 15.353 46.2212 15.353 46.1037V43.9412L17.5404 45.0349C17.648 45.0887 17.778 45.047 17.8327 44.9376L18.4321 43.7389C18.4858 43.6313 18.439 43.4989 18.3345 43.4466L16.1471 42.3529L18.3345 41.2592C18.4422 41.2054 18.4867 41.0764 18.4321 40.967L17.8327 39.7683C17.7789 39.6607 17.6448 39.6188 17.5404 39.671L15.353 40.7647V38.6022C15.353 38.4808 15.2584 38.3824 15.1321 38.3824H13.9856C13.8636 38.3824 13.7647 38.4847 13.7647 38.6022V40.7647L11.5773 39.671C11.4697 39.6172 11.3397 39.6589 11.285 39.7683L10.6856 40.967C10.6319 41.0746 10.6787 41.207 10.7832 41.2592L12.9706 42.3529L10.7832 43.4466C10.6756 43.5005 10.631 43.6295 10.6856 43.7389L11.285 44.9376C11.3388 45.0452 11.4729 45.0871 11.5773 45.0349L13.7647 43.9412V46.1037C13.7647 46.2251 13.8593 46.3235 13.9856 46.3235H15.1321Z" fill="#00C98E"/>
</svg>
